<?xml version="1.0" encoding="UTF-8"?> <svg xmlns="http://www.w3.org/2000/svg" width="520" height="72" viewBox="0 0 520 72" fill="none"><path d="M15.7995 38.7305V42.8792C15.7995 48.4554 15.7995 53.3625 15.7995 57.6896C15.7995 62.0168 16.1566 66.2993 16.4243 70.448C15.1757 70.3747 13.9239 70.3747 12.6753 70.448H3.74903C2.50043 70.3747 1.2486 70.3747 0 70.448C0.267788 66.2993 0.490945 62.0168 0.624839 57.6896C0.758733 53.3625 0.624839 48.4554 0.624839 42.8792V29.1841C0.624839 23.6079 0.624839 18.6562 0.624839 14.329C0.624839 10.0019 0.357051 5.67477 0.0892628 1.30302L3.74903 1.6599C5.08798 1.6599 6.56081 1.6599 8.21217 1.6599C9.86353 1.6599 12.229 1.74912 14.5498 1.57068C16.8707 1.39224 19.7271 1.30302 23.1637 1.30302C25.7077 1.30302 27.85 1.30302 29.6799 1.52607C31.2527 1.61993 32.8179 1.81363 34.3661 2.106C35.5475 2.33595 36.6999 2.69498 37.8028 3.17663C38.7671 3.61899 39.6927 4.14126 40.5699 4.73797C42.5481 6.19154 44.1791 8.06553 45.3455 10.225C46.5323 12.5903 47.1295 15.2074 47.0861 17.8532C47.2477 22.1942 45.8195 26.445 43.0693 29.8086C40.0073 33.1966 35.968 35.5504 31.5097 36.5447C34.7232 42.2101 38.1598 47.9201 41.8642 53.5409C45.5686 59.1618 49.2284 64.8272 52.9328 70.4034C51.4153 70.4034 49.8979 70.4034 48.4697 70.4034H39.4541C37.9813 70.4034 36.4192 70.4034 34.991 70.4034L17.1384 38.6859L15.7995 38.7305ZM30.7956 13.3922C30.2933 11.821 29.3291 10.4374 28.0285 9.42198C26.5871 8.45916 24.9326 7.862 23.2083 7.68221C20.8541 7.39417 18.4836 7.26005 16.1119 7.28072C16.1119 16.2027 15.7995 25.5261 15.7995 34.6264H16.9599H17.9864C19.8237 34.777 21.6725 34.5543 23.4214 33.9716C25.1702 33.3889 26.783 32.4584 28.1624 31.2361C30.7287 28.2327 31.9969 24.3336 31.6883 20.396C31.7536 18.0294 31.4525 15.6669 30.7956 13.3922Z" fill="#DE87B8"></path><path d="M57.3067 22.0465C59.1215 17.7438 61.7768 13.8462 65.1172 10.5818C68.6331 7.1813 72.8107 4.53929 77.3908 2.81975C82.4623 0.889794 87.8534 -0.0637749 93.2795 0.00933949C98.3654 -0.0531407 103.428 0.699913 108.276 2.23982C112.721 3.62379 116.837 5.90082 120.371 8.93127C123.957 11.9733 126.81 15.7856 128.717 20.0837C130.777 25.1041 131.78 30.4951 131.663 35.9201C131.68 40.7734 130.677 45.5762 128.717 50.0168C126.83 54.378 124.077 58.311 120.625 61.5775C117.173 64.844 113.093 67.3762 108.633 69.0205C103.686 70.8868 98.4328 71.8098 93.1457 71.7417C88.0957 71.7701 83.0655 71.1097 78.1941 69.7789C73.7193 68.5803 69.5607 66.4183 66.0098 63.4443C62.457 60.4017 59.6479 56.5869 57.7976 52.2919C55.6647 47.1342 54.6311 41.5887 54.7627 36.0093C54.6669 31.2318 55.532 26.4836 57.3067 22.0465ZM113.319 22.3142C112.404 19.0869 110.89 16.0604 108.856 13.3922C106.978 10.9902 104.572 9.05262 101.825 7.72975C99.0769 6.40687 96.0614 5.73424 93.0118 5.76399C89.7637 5.7064 86.5641 6.55613 83.7731 8.21752C81.0137 9.91079 78.6659 12.1965 76.8998 14.909C74.8634 17.9346 73.3544 21.283 72.4367 24.8123C71.4314 28.7778 70.9365 32.8554 70.9639 36.9461C70.8882 41.4651 71.4593 45.9716 72.6599 50.329C73.5447 53.568 75.0615 56.6001 77.123 59.251C78.9983 61.4731 81.3885 63.2035 84.0855 64.2919C86.6566 65.3085 89.3988 65.8234 92.1638 65.8086C95.1569 65.8221 98.1151 65.1667 100.822 63.8904C103.698 62.541 106.208 60.5216 108.142 58.0019C110.39 55.0245 112.056 51.6493 113.051 48.0539C114.385 43.4157 115.017 38.6041 114.926 33.7789C114.953 29.8994 114.412 26.0367 113.319 22.3142Z" fill="#DE87B8"></path><path d="M163.44 6.25469C160.672 6.12496 157.964 7.08603 155.897 8.93127C154.99 9.71956 154.262 10.6926 153.762 11.7851C153.261 12.8776 153 14.0643 152.996 15.2658C152.919 17.5018 153.72 19.6794 155.228 21.3328C156.885 23.1119 158.813 24.6175 160.941 25.7937C163.332 27.1371 165.79 28.358 168.305 29.4517C170.892 30.6825 173.345 32.1774 175.624 33.9127C177.897 35.6252 179.834 37.7425 181.337 40.158C182.934 43.0304 183.706 46.2876 183.569 49.5707C183.616 52.7379 182.96 55.8762 181.65 58.7603C180.418 61.5201 178.571 63.9616 176.249 65.8978C173.764 67.9339 170.896 69.4509 167.814 70.3588C164.285 71.4329 160.612 71.9594 156.924 71.9201C153.644 71.9575 150.373 71.5676 147.194 70.7603C144.875 70.2277 142.679 69.2588 140.723 67.9052C141.392 65.5409 141.928 63.4443 142.419 61.4368C142.91 59.4294 143.267 57.3774 143.624 55.1023H145.543C145.799 56.578 146.313 57.9973 147.06 59.2956C147.79 60.6088 148.741 61.786 149.872 62.7751C151.081 63.8134 152.473 64.6154 153.978 65.1394C155.731 65.7342 157.573 66.0209 159.423 65.987C161.039 66.1175 162.665 65.9157 164.201 65.3939C165.736 64.8722 167.148 64.0417 168.35 62.9536C169.28 61.9977 170.012 60.8668 170.502 59.6263C170.993 58.3858 171.232 57.0604 171.206 55.7268C171.293 53.4358 170.493 51.1993 168.974 49.4815C167.384 47.7039 165.515 46.1971 163.44 45.0205C161.094 43.6918 158.681 42.4857 156.21 41.4071C153.624 40.2252 151.195 38.7267 148.979 36.9461C146.74 35.2727 144.846 33.1823 143.401 30.79C141.834 27.9075 141.079 24.6548 141.214 21.3774C141.147 18.1842 141.787 15.0157 143.088 12.0986C144.244 9.52785 145.932 7.23181 148.042 5.3625C150.175 3.61135 152.61 2.26569 155.228 1.39224C158.002 0.456565 160.914 -0.0107929 163.842 0.00933547C167.058 -0.0428076 170.263 0.393389 173.348 1.30302C175.878 2.08746 178.25 3.31056 180.355 4.9164C179.775 6.47774 179.24 7.94986 178.793 9.37736C178.347 10.8049 177.811 12.6339 177.142 14.8644H175.624C174.863 12.2658 173.245 10.0009 171.033 8.43778C168.821 6.8747 166.145 6.10532 163.44 6.25469Z" fill="#DE87B8"></path><path d="M253.685 70.448C252.078 70.448 250.56 70.448 249.222 70.448H240.518C239.046 70.448 237.617 70.448 236.055 70.448C234.984 67.1469 233.868 63.8012 232.708 60.3662C231.548 56.9313 230.387 53.5409 229.093 50.106H222.666H211.151H205.929C204.59 53.5409 203.34 56.9313 202.225 60.3662C201.109 63.8012 200.038 67.1469 199.101 70.448C198.299 70.382 197.492 70.382 196.69 70.448H191.959C191.083 70.3856 190.203 70.3856 189.326 70.448C190.13 68.7082 191.201 66.2547 192.54 63.1766C193.879 60.0986 195.351 56.619 197.003 52.738L202.135 40.158C204.01 35.6971 205.84 31.2361 207.67 26.7751C209.5 22.3142 211.33 17.8532 213.115 13.3922C214.9 8.93128 216.507 4.47031 217.98 0.812317L219.899 1.16919C220.523 1.21661 221.149 1.21661 221.773 1.16919C222.412 1.21666 223.054 1.21666 223.692 1.16919L225.612 0.812317C227.754 6.52235 230.075 12.6339 232.485 19.1023C234.895 25.5707 237.439 32.0391 239.894 38.2844C242.348 44.5298 244.803 50.5075 247.168 56.1283C249.534 61.7491 251.632 66.567 253.595 70.448M217.98 20.2175C216.194 24.2324 214.588 28.2473 213.025 32.1729C211.463 36.0986 209.991 40.0688 208.562 44.1729H226.906C225.433 40.0688 223.96 36.054 222.443 32.1729C220.925 28.2919 219.497 24.2324 217.98 20.2175Z" fill="#DE87B8"></path><path d="M263.816 14.329C263.816 9.86808 263.459 5.67477 263.191 1.30302L267.074 1.6599C268.413 1.6599 269.886 1.6599 271.537 1.6599C273.189 1.6599 274.706 1.6599 276 1.6599L279.749 1.30302C279.482 5.76399 279.258 10.225 279.125 14.329C278.991 18.4331 279.125 23.6079 279.125 29.1841V42.8792C279.125 46.6711 279.125 50.3737 279.125 53.9424C279.125 57.5112 279.125 60.5893 279.125 63.1766C282.963 63.1766 286.801 63.1766 290.639 62.8644C294.478 62.5521 298.316 62.4629 302.154 61.883C302.154 62.6413 302.154 63.2658 301.842 63.8904C301.53 64.5149 301.842 65.3179 301.842 66.3885C301.842 67.4592 301.842 68.3067 301.842 68.9313C301.907 69.4442 302.011 69.9513 302.154 70.448H295.46H265.155H263.191C263.459 66.2547 263.682 62.0168 263.816 57.6896C263.95 53.3625 263.816 48.4108 263.816 42.8792V29.1841C263.816 23.6079 263.816 18.6562 263.816 14.329Z" fill="#DE87B8"></path><path d="M360.22 8.93127C356.609 6.97582 352.541 6.02091 348.437 6.16547C345.269 6.16784 342.136 6.83661 339.243 8.1283C336.128 9.47995 333.342 11.4886 331.075 14.0168C328.548 16.8915 326.594 20.2227 325.318 23.8309C323.751 28.2696 322.995 32.9538 323.086 37.6599C323.042 41.4413 323.6 45.2058 324.738 48.8123C325.748 52.1528 327.384 55.2713 329.558 58.0019C331.643 60.5035 334.268 62.5013 337.235 63.8458C340.482 65.3254 344.021 66.0572 347.589 65.987H350.579L353.793 65.5855C354.761 65.5059 355.718 65.3265 356.649 65.0502C357.326 64.9047 357.975 64.6485 358.568 64.2919C358.72 63.3022 358.81 62.3039 358.836 61.303C358.836 60.0986 358.836 58.7157 358.836 57.2435C358.836 51.8458 358.836 47.8309 358.524 45.2435C358.211 42.6562 358.167 40.7826 358.122 39.935C359.007 40.0829 359.903 40.1575 360.8 40.158C362.391 40.2462 363.985 40.2462 365.575 40.158C367.36 40.2484 369.147 40.2484 370.931 40.158C371.862 40.1186 372.788 39.9992 373.698 39.8012C373.534 40.6703 373.43 41.5497 373.386 42.4331C373.386 43.6376 373.386 45.0651 373.118 46.6264C372.85 48.1878 373.118 49.8829 373.118 51.6673C373.118 53.4517 373.118 55.1023 373.118 56.7082V60.0539C373.118 61.7045 373.118 63.2658 373.118 64.738C373.122 65.7548 373.212 66.7695 373.386 67.7714C368.993 69.0699 364.52 70.0831 359.997 70.8049C355.572 71.5464 351.093 71.9194 346.607 71.9201C341.211 71.9724 335.839 71.2053 330.674 69.645C326.079 68.2861 321.8 66.0266 318.088 62.9982C314.592 60.1404 311.773 56.5453 309.831 52.4703C307.781 48.1052 306.758 43.3289 306.841 38.5075C306.723 32.7718 307.802 27.0746 310.009 21.7789C312.048 17.1609 315.098 13.0598 318.936 9.77885C322.87 6.50877 327.424 4.06595 332.325 2.5967C337.478 0.948426 342.848 0.0764079 348.259 0.00933743C352.772 -0.0779656 357.276 0.447272 361.648 1.57068C365.476 2.64643 369.173 4.14253 372.672 6.03164C372.136 7.77142 371.645 9.5112 371.11 11.1618C370.574 12.8123 370.217 14.5521 369.86 16.2919H368.477C366.291 13.2684 363.474 10.7568 360.22 8.93127Z" fill="#DE87B8"></path><path d="M389.319 14.329C389.319 9.86808 389.007 5.67477 388.695 1.30302L392.444 1.6599C393.782 1.6599 395.3 1.6599 396.907 1.6599C398.513 1.6599 400.12 1.6599 401.37 1.6599L405.431 1.30302C405.163 5.76399 404.985 10.225 404.851 14.329C404.717 18.4331 404.851 23.6079 404.851 29.1841V42.8792C404.851 48.4108 404.851 53.3625 404.851 57.6896C404.851 62.0168 405.163 66.2547 405.431 70.448C404.198 70.3748 402.961 70.3748 401.727 70.448H392.801C391.552 70.3761 390.3 70.3761 389.052 70.448C389.364 66.2547 389.543 62.0168 389.676 57.6896C389.81 53.3625 389.676 48.4108 389.676 42.8792V29.1841C389.676 23.6079 389.676 18.6562 389.676 14.329" fill="#DE87B8"></path><path d="M423.284 9.68964C423.284 6.52235 423.284 3.75655 423.016 1.30302C424.485 1.61025 425.979 1.78936 427.479 1.83833C428.98 1.79377 430.474 1.61461 431.942 1.30302L453.633 25.2584L475.77 49.08V30.7008C475.77 27.3997 475.77 24.1878 475.77 20.9759C475.77 17.764 475.77 14.8644 475.77 12.0539C475.77 9.24354 475.77 7.05767 475.77 5.09484C475.734 3.78008 475.615 2.46892 475.413 1.16919C476.883 1.47642 478.376 1.65553 479.876 1.70451C481.377 1.65758 482.87 1.47845 484.34 1.16919C484.027 7.28071 483.759 12.8123 483.536 17.7194C483.313 22.6264 483.179 27.3105 483.045 31.6822C482.911 36.0539 483.045 40.3365 482.777 44.5744C482.51 48.8123 482.777 53.4963 482.777 58.225V70.3142C481.41 70.2242 480.039 70.2242 478.671 70.3142C477.364 70.2149 476.051 70.2149 474.744 70.3142C460.908 54.225 446.239 38.0168 430.737 21.6896V27.5335C430.737 29.4963 430.737 31.4592 430.737 33.4666V45.1543C430.737 49.1692 430.737 52.6041 430.737 55.4145C430.737 58.225 430.737 60.5893 430.737 62.5521C430.737 64.5149 430.737 66.0763 430.737 67.3253C430.737 68.5744 430.737 69.5558 430.737 70.3142C429.936 70.2261 429.128 70.2261 428.327 70.3142H426.006C424.52 70.2304 423.03 70.2304 421.543 70.3142C421.543 69.7789 421.811 67.8606 422.034 64.5595C422.257 61.2584 422.436 57.2881 422.704 52.5595C422.971 47.8309 423.284 42.8346 423.284 37.303C423.284 31.7714 423.552 26.4183 423.552 21.3328C423.552 16.2473 423.552 12.8123 423.552 9.68964" fill="#DE87B8"></path><path d="M493.667 11.0279C494.313 9.36559 495.284 7.8489 496.524 6.56696C497.788 5.31451 499.311 4.35506 500.987 3.75655C503.425 2.73169 506.113 2.45169 508.71 2.95186C511.308 3.45204 513.699 4.70998 515.581 6.56696C516.821 7.8489 517.793 9.36559 518.438 11.0279C519.138 12.6791 519.498 14.4541 519.498 16.2473C519.498 18.0405 519.138 19.8154 518.438 21.4666C517.772 23.0391 516.801 24.4642 515.581 25.6599C514.357 26.843 512.918 27.7817 511.342 28.4257C509.702 29.1128 507.942 29.4666 506.164 29.4666C504.387 29.4666 502.627 29.1128 500.987 28.4257C499.323 27.8241 497.803 26.8821 496.524 25.6599C494.023 23.1635 492.611 19.78 492.596 16.2473C492.59 14.4523 492.954 12.6754 493.667 11.0279ZM516.831 11.6525C515.613 8.83002 513.362 6.57976 510.538 5.3625C509.085 4.74408 507.521 4.42533 505.941 4.42533C504.361 4.42533 502.798 4.74408 501.344 5.3625C498.52 6.57976 496.269 8.83002 495.051 11.6525C494.452 13.0631 494.149 14.5812 494.158 16.1134C494.154 17.6452 494.457 19.1623 495.051 20.5744C495.655 21.9725 496.518 23.2438 497.595 24.3216C498.676 25.3833 499.948 26.231 501.344 26.8197C502.798 27.4382 504.361 27.7569 505.941 27.7569C507.521 27.7569 509.085 27.4382 510.538 26.8197C511.934 26.231 513.206 25.3833 514.287 24.3216C515.364 23.2438 516.227 21.9725 516.831 20.5744C517.405 19.1563 517.708 17.6431 517.724 16.1134C517.712 14.5833 517.41 13.0693 516.831 11.6525ZM511.475 23.5186H509.467H508.485C507.503 21.7789 506.744 20.4406 506.254 19.4592L505.093 17.3625C504.963 17.0895 504.798 16.8345 504.602 16.6041C504.602 16.6041 504.602 16.8718 504.602 17.1394C504.602 17.4071 504.602 18.2547 504.602 18.9238C504.602 19.593 504.602 20.2175 504.602 20.8421C504.602 21.4666 504.602 22.0019 504.602 22.4926C504.602 22.9833 504.602 23.3402 504.602 23.5186H503.754H502.014H501.121C501.105 23.281 501.105 23.0425 501.121 22.8049C501.121 22.448 501.121 21.9127 501.121 21.2881C501.121 20.6636 501.121 19.7714 501.121 18.79C501.121 17.8086 501.121 16.6041 501.121 15.2212V12.3662C501.121 11.6079 501.121 10.9387 501.121 10.448C501.121 9.95729 501.121 9.46659 501.121 9.15432C501.121 8.84205 501.121 8.52978 501.121 8.30674H507.102C508.261 8.25471 509.401 8.61861 510.315 9.33276C510.692 9.67705 510.99 10.0981 511.191 10.5675C511.391 11.0369 511.488 11.5438 511.475 12.0539C511.49 12.5497 511.403 13.0431 511.218 13.5036C511.034 13.9641 510.757 14.3817 510.404 14.7305C509.727 15.4449 508.833 15.9154 507.86 16.0688L512.547 23.6079H511.52M507.057 10.225C506.862 10.0025 506.622 9.82396 506.352 9.70095C506.083 9.57793 505.791 9.51326 505.495 9.5112H504.334C504.334 10.1803 504.334 10.8049 504.334 11.3402C504.334 11.8755 504.334 12.4554 504.334 12.9461V15.6227H505.316C505.725 15.5926 506.122 15.4706 506.477 15.2658C506.897 15.0465 507.239 14.7041 507.459 14.2844C507.756 13.6906 507.895 13.0296 507.86 12.3662C507.895 11.9862 507.849 11.6032 507.726 11.242C507.603 10.8808 507.406 10.5495 507.146 10.2696" fill="#DE87B8"></path></svg> 